HIERARCHY
ROOT Hips
{
	OFFSET -3.958830 18.904000 13.208200
	CHANNELS 6 Xposition Yposition Zposition Zrotation Yrotation Xrotation 
	JOINT LHipJoint
	{
		OFFSET 0.000000 0.000000 0.000000
		CHANNELS 3 Zrotation Yrotation Xrotation
		JOINT LeftUpLeg
		{
			OFFSET 1.800000 -1.400000 0.085000
			CHANNELS 3 Zrotation Yrotation Xrotation
			JOINT LeftLeg
			{
				OFFSET 2.215000 -6.000000 0.000000
				CHANNELS 3 Zrotation Yrotation Xrotation
				JOINT LeftFoot
				{
					OFFSET 2.500000 -6.900000 0.000000
					CHANNELS 3 Zrotation Yrotation Xrotation
					JOINT LeftToeBase
					{
						OFFSET 0.200000 -0.500000 1.950000
						CHANNELS 3 Zrotation Yrotation Xrotation
						End Site
						{
							OFFSET 0.000000 0.000000 0.000000
						}
					}
				}
			}
		}
	}
	JOINT RHipJoint
	{
		OFFSET 0.000000 0.000000 0.000000
		CHANNELS 3 Zrotation Yrotation Xrotation
		JOINT RightUpLeg
		{
			OFFSET -1.800000 -1.400000 0.085000
			CHANNELS 3 Zrotation Yrotation Xrotation
			JOINT RightLeg
			{
				OFFSET -2.215000 -6.000000 0.000000
				CHANNELS 3 Zrotation Yrotation Xrotation
				JOINT RightFoot
				{
					OFFSET -2.500000 -6.900000 0.000000
					CHANNELS 3 Zrotation Yrotation Xrotation
					JOINT RightToeBase
					{
						OFFSET -0.200000 -0.500000 1.950000
						CHANNELS 3 Zrotation Yrotation Xrotation
						End Site
						{
							OFFSET 0.000000 0.000000 0.000000
						}
					}
				}
			}
		}
	}
	JOINT LowerBack
	{
		OFFSET 0.000000 0.000000 0.000000
		CHANNELS 3 Zrotation Yrotation Xrotation
		JOINT Spine
		{
			OFFSET -0.087000 1.940000 -0.288900
			CHANNELS 3 Zrotation Yrotation Xrotation
			JOINT Spine1
			{
				OFFSET 0.000000 1.950000 0.060000
				CHANNELS 3 Zrotation Yrotation Xrotation
				JOINT Neck
				{
					OFFSET 0.000000 0.000000 0.000000
					CHANNELS 3 Zrotation Yrotation Xrotation
					JOINT Neck1
					{
						OFFSET 0.000000 1.600000 0.340000
						CHANNELS 3 Zrotation Yrotation Xrotation
						JOINT Head
						{
							OFFSET 0.000000 1.667000 -0.240000
							CHANNELS 3 Zrotation Yrotation Xrotation
							End Site
							{
								OFFSET 0.000000 0.000000 0.000000
							}
						}
					}
				}
				JOINT LeftShoulder
				{
					OFFSET 0.000000 0.000000 0.000000
					CHANNELS 3 Zrotation Yrotation Xrotation
					JOINT LeftArm
					{
						OFFSET 2.700000 1.550000 -0.730000
						CHANNELS 3 Zrotation Yrotation Xrotation
						JOINT LeftForeArm
						{
							OFFSET 5.450000 0.000000 0.000000
							CHANNELS 3 Zrotation Yrotation Xrotation
							JOINT LeftHand
							{
								OFFSET 3.450000 0.000000 0.000000
								CHANNELS 3 Zrotation Yrotation Xrotation
								JOINT LeftHandIndex1
								{
									OFFSET 0.750000 0.000000 0.000000
									CHANNELS 3 Zrotation Yrotation Xrotation
									End Site
									{
										OFFSET 0.000000 0.000000 0.000000
									}
								}
							}
						}
					}
				}
				JOINT RightShoulder
				{
					OFFSET 0.000000 0.000000 0.000000
					CHANNELS 3 Zrotation Yrotation Xrotation
					JOINT RightArm
					{
						OFFSET -2.700000 1.550000 -0.730000
						CHANNELS 3 Zrotation Yrotation Xrotation
						JOINT RightForeArm
						{
							OFFSET -5.450000 0.000000 0.000000
							CHANNELS 3 Zrotation Yrotation Xrotation
							JOINT RightHand
							{
								OFFSET -3.450000 0.000000 0.000000
								CHANNELS 3 Zrotation Yrotation Xrotation
								JOINT RightHandIndex1
								{
									OFFSET -0.750000 0.000000 0.000000
									CHANNELS 3 Zrotation Yrotation Xrotation
									End Site
									{
										OFFSET 0.000000 0.000000 0.000000
									}
								}
							}
						}
					}
				}
			}
		}
	}
}
MOTION
Frames: 11
Frame Time: 0.016667
1.158920 17.593150 -1.005800 -3.026534 3.694226 1.302267 -15.175884 13.628338 3.024191 6.118158 -2.184687 -13.640675 -11.362052 8.766894 20.893851 -0.517887 5.868960 2.636004 -0.543110 -0.834620 -0.569090 18.231401 -10.130550 3.380076 2.113817 5.383565 -30.813254 0.985764 -4.058056 23.352216 0.287397 -2.782220 3.511826 -0.324990 0.899990 0.069310 -3.543746 -3.061569 -7.856431 7.500252 -4.453194 13.014173 -6.711896 -2.905704 4.032857 1.935492 -2.621221 -10.149093 -8.744732 5.918554 41.027535 -0.314350 1.565760 4.152480 -22.483890 -11.073810 2.517960 -38.433142 -8.842557 -1.467069 -1.146062 -15.425446 -1.163705 -4.309525 2.523343 0.446100 0.439470 -0.474110 -0.000120 18.640977 11.099358 8.153295 57.944420 -2.471682 -13.444648 45.773503 48.176249 13.072578 1.980951 -1.271089 -0.616420 0.517250 0.734530 -0.090730 
1.136120 17.597890 -0.997770 -3.092651 3.915431 1.479971 -15.199372 13.654108 3.014095 6.116863 -2.246326 -14.013115 -10.915786 8.692219 21.209204 -0.538407 5.871933 2.641785 -0.582650 -0.879700 -0.598880 18.206191 -10.124349 3.365727 1.532195 5.280195 -31.011139 1.418215 -4.132312 22.736824 0.318056 -2.739285 3.534391 -0.340300 0.936000 0.067070 -3.478512 -3.117805 -7.831152 6.999347 -4.364852 12.638236 -6.066009 -2.940564 4.204198 1.808096 -2.541515 -10.193001 -8.560664 5.938872 40.980639 -0.344870 1.646300 4.703420 -21.762828 -11.159271 2.706774 -39.595635 -9.017952 -1.364594 -1.194524 -15.586342 -1.194831 -4.339198 2.503730 0.440120 0.463030 -0.496740 -0.006010 18.253185 11.207129 8.027780 58.325915 -1.817661 -13.364830 43.505373 47.499407 12.026933 1.969254 -1.238811 -0.639120 0.534110 0.762880 -0.088950 
1.095320 17.612970 -0.982680 -3.332675 4.228915 1.781649 -15.223921 13.678772 2.980927 6.238113 -2.316388 -14.631635 -10.040406 8.492751 21.653792 -0.521859 5.757879 2.679645 -0.544400 -0.823950 -0.597480 18.177608 -10.133382 3.352933 0.516211 5.129623 -31.260758 2.440511 -4.277177 21.702538 0.323970 -2.680440 3.561727 -0.324830 0.927590 0.070790 -3.410215 -3.132544 -7.782731 6.362700 -4.136605 12.067526 -4.960429 -2.914417 4.453939 1.497789 -2.497753 -10.164089 -8.465760 5.890060 41.065371 0.168530 1.427320 5.052010 -20.339587 -10.985123 2.903484 -42.021314 -9.629602 -1.200562 -1.327794 -16.062945 -1.204609 -4.311061 2.554896 0.411540 0.458530 -0.491630 0.022490 17.558575 11.181750 7.699406 59.005746 -0.658436 -13.130995 39.176979 46.055122 10.051837 1.971260 -1.248157 -0.603620 0.513490 0.725230 -0.067230 
1.038950 17.630730 -0.964340 -3.474403 4.770691 2.556374 -15.265930 13.672856 2.943918 6.144610 -2.461306 -15.729903 -8.969831 8.142167 21.821493 -0.534863 5.593347 2.748235 -0.549740 -0.820720 -0.632130 18.141923 -10.126229 3.329583 -0.963981 4.928474 -31.733509 3.789970 -4.512065 20.645458 0.359056 -2.678574 3.578014 -0.319890 0.964730 0.067910 -3.310145 -3.135569 -7.685142 5.291841 -3.850936 10.907142 -3.535726 -2.927508 4.786359 1.051069 -2.370421 -9.927879 -8.003749 5.743206 40.373691 0.680930 1.154110 6.122950 -18.335861 -10.438040 3.051897 -45.442207 -10.413286 -0.975648 -1.636997 -16.869798 -1.231323 -4.322303 2.598262 0.362020 0.487070 -0.527470 0.046270 16.584753 10.754174 7.100907 60.002686 0.989878 -12.445482 33.928399 43.414967 7.678476 1.971137 -1.239523 -0.597420 0.507420 0.717490 -0.043560 
0.977820 17.651320 -0.939960 -3.890807 5.595098 3.915324 -15.312180 13.611531 2.894134 6.190342 -2.682787 -17.367632 -7.825914 7.661860 21.539523 -0.584298 5.390347 2.843885 -0.603850 -0.869610 -0.722480 18.120698 -10.073006 3.306283 -2.695122 4.742498 -32.289220 5.747894 -4.901531 19.465470 0.415053 -2.778113 3.561421 -0.324800 1.056560 0.068100 -3.227638 -3.125833 -7.524197 4.448349 -3.631130 9.035908 -1.846296 -3.049874 5.155211 0.546275 -2.129359 -9.386395 -7.061688 5.479660 38.234748 0.731980 1.096200 7.881540 -16.082123 -9.375366 2.985801 -49.882616 -11.618302 -0.512450 -2.026047 -17.661416 -1.287305 -4.385506 2.657867 0.285590 0.559710 -0.613110 0.069580 15.450826 9.628428 6.254674 61.142324 2.540258 -11.435702 28.808218 40.064960 5.507046 1.957444 -1.241516 -0.619490 0.505650 0.748770 -0.014880 
0.910780 17.680970 -0.919430 -4.159894 6.562042 5.319087 -15.357682 13.547143 2.848806 5.946927 -2.855820 -18.798361 -6.606961 7.023497 20.532902 -0.628157 5.100478 2.982663 -0.669650 -0.932150 -0.822140 18.101974 -10.020063 3.283472 -4.446736 4.499997 -32.788847 7.394978 -5.231287 18.485041 0.478866 -2.915765 3.541369 -0.339260 1.167620 0.075790 -3.148549 -3.119221 -7.356720 3.406352 -3.428694 7.288823 -0.014482 -3.179612 5.387378 -0.123178 -1.985574 -8.829102 -6.390612 5.168127 36.073677 0.902830 0.660000 9.758160 -13.743479 -8.051915 2.922345 -54.698634 -12.731575 -0.105286 -2.816479 -19.130457 -1.315839 -4.460791 2.718871 0.190790 0.647190 -0.709410 0.089350 14.567472 8.336045 5.321785 61.970584 3.908047 -10.207483 24.189717 36.108248 3.688573 1.958161 -1.234956 -0.634660 0.505610 0.786950 0.025050 
0.836910 17.725040 -0.904350 -4.476541 7.468430 6.485998 -15.397131 13.487224 2.826033 5.815675 -2.964960 -19.785234 -5.800369 6.464698 19.018074 -0.662128 4.813538 3.122290 -0.707270 -0.969760 -0.873880 18.080180 -9.973258 3.267782 -5.947124 4.245003 -32.785388 8.994365 -5.437856 17.153354 0.517190 -2.996414 3.535162 -0.345680 1.244920 0.069830 -3.069961 -3.113323 -7.244381 2.278987 -3.170566 6.081444 2.044129 -3.204142 5.412881 -0.876621 -1.854083 -8.388876 -5.941429 4.766001 34.776456 1.318620 -0.032410 10.715430 -11.798042 -6.838777 2.966605 -59.399828 -13.424798 0.103303 -4.069572 -20.885617 -1.295616 -4.495691 2.753315 0.128830 0.697000 -0.770170 0.105880 14.262124 7.226469 4.433450 62.221898 4.933262 -9.104971 19.798730 32.035462 2.199959 1.978947 -1.196403 -0.648900 0.526780 0.803480 0.054720 
0.767820 17.779390 -0.889320 -4.914042 8.425581 7.464462 -15.424171 13.436675 2.806444 5.606417 -2.948757 -20.139788 -5.138209 5.818835 16.673211 -0.714657 4.460709 3.262692 -0.710490 -0.965750 -0.907270 18.061346 -9.933943 3.268782 -7.384493 3.983957 -32.388383 10.844983 -5.668498 15.712786 0.506988 -3.101485 3.489410 -0.337960 1.271900 0.077370 -3.014438 -3.103345 -7.184289 1.461471 -2.897275 5.309227 4.021083 -3.149203 5.305116 -1.491624 -1.737439 -8.117291 -5.624221 4.466155 34.121628 1.787420 -0.598120 10.656440 -10.245128 -5.858313 3.115876 -63.937183 -13.655029 0.025563 -5.457006 -22.671467 -1.283998 -4.486580 2.810028 0.111390 0.706660 -0.784140 0.122110 14.061379 6.362193 3.709525 62.159064 5.500551 -8.254459 16.173743 27.968675 1.122879 2.002165 -1.161522 -0.646810 0.530820 0.812340 0.074890 
0.696560 17.827160 -0.877450 -5.228845 9.572794 8.610307 -15.453883 13.354022 2.826061 5.424985 -3.034709 -20.663847 -4.893391 5.305324 14.267420 -0.769346 4.196840 3.379244 -0.715530 -0.982600 -0.907040 18.047195 -9.880268 3.245522 -8.580798 3.724409 -31.997674 11.998612 -5.743137 14.421100 0.513214 -3.166700 3.470763 -0.333960 1.297110 0.077870 -2.958095 -3.098149 -7.122503 0.609949 -2.682764 4.463754 5.858900 -3.121700 5.290642 -2.047129 -1.626114 -7.828309 -5.297334 3.917053 33.159674 1.710090 -1.084480 10.484490 -8.372927 -4.576562 3.257362 -68.587129 -13.663458 -0.145310 -7.457364 -24.451585 -1.144547 -4.489725 2.843003 0.101000 0.724760 -0.806210 0.123180 13.397036 5.205126 2.951472 62.600751 5.941833 -7.517443 13.226299 24.092377 0.359543 2.024325 -1.124636 -0.661020 0.544990 0.818920 0.074290 
0.626240 17.864220 -0.871050 -5.504239 10.426254 9.685477 -15.478436 13.266244 2.883579 5.386050 -3.140541 -21.097987 -5.219037 4.947930 11.892419 -0.840406 4.023681 3.453502 -0.706210 -0.969050 -0.926830 18.038357 -9.820018 3.201663 -9.432506 3.519570 -31.566208 12.515034 -5.688817 13.410190 0.506715 -3.180941 3.462541 -0.304230 1.314880 0.056450 -2.909434 -3.121703 -7.084919 -0.080280 -2.392763 3.891224 7.377531 -2.956865 5.274617 -2.587638 -1.773500 -7.557282 -5.448272 3.768043 32.178275 2.356200 -1.768790 9.412770 -6.978328 -3.246789 3.362590 -72.282136 -13.170740 -0.648677 -10.461915 -26.344584 -0.739944 -4.458716 2.873656 0.125290 0.714850 -0.816370 0.137250 13.143055 4.175009 2.322835 62.705151 5.867615 -7.240635 11.078154 21.043486 -0.109352 2.027160 -1.082858 -0.693650 0.587700 0.830960 0.073650 
0.564820 17.885810 -0.867860 -5.927335 11.092835 10.884063 -15.480230 13.144557 2.953853 5.417602 -3.304762 -21.742690 -5.726907 4.674557 9.794997 -0.906397 3.944527 3.500042 -0.722850 -0.989440 -0.950200 18.058535 -9.764984 3.148025 -9.914887 3.418356 -31.222361 12.625073 -5.566717 12.568149 0.533403 -3.183190 3.471516 -0.284480 1.360700 0.042370 -2.932417 -3.086404 -7.037776 -0.020673 -2.149048 3.345516 8.314729 -2.760809 5.107255 -3.069125 -2.055374 -7.053658 -5.682871 3.467452 30.279074 2.318180 -2.392750 8.620040 -6.150245 -1.402254 3.258584 -75.078988 -12.186883 -1.207026 -14.503852 -27.883181 0.059879 -4.480117 2.887123 0.121660 0.740540 -0.855570 0.134420 13.244562 2.703413 1.527228 62.368111 5.597450 -7.020486 9.501520 18.353570 -0.418446 2.025304 -1.045624 -0.734060 0.630720 0.860650 0.071720 
